<svg version="1.1" id="Layer_1" xmlns="http://www.w3.org/2000/svg" xmlns:xlink="http://www.w3.org/1999/xlink" x="0px" y="0px"
	 width="100%" viewBox="0 0 1024 1024" enable-background="new 0 0 1024 1024" xml:space="preserve">
<path fill="#000000" opacity="1.000000" stroke="none" 
	d="
M422.680878,555.999878 
	C422.654480,520.186707 422.791504,484.872314 422.523346,449.561035 
	C422.414764,435.255127 421.319885,436.653870 435.702240,436.639343 
	C450.018982,436.624847 464.346649,436.263733 478.650177,436.695465 
	C507.198669,437.557251 529.592773,450.037292 544.710693,474.284698 
	C564.766357,506.451569 555.705444,549.113586 524.795105,571.763489 
	C509.864471,582.704163 493.092438,587.701416 474.835114,588.035767 
	C459.681580,588.313293 444.520294,588.194397 429.362427,588.191284 
	C423.556885,588.190063 422.736053,587.338806 422.700928,581.486023 
	C422.650970,573.157532 422.683899,564.828674 422.680878,555.999878 
M513.483521,522.831604 
	C518.146118,504.876343 510.735931,488.825043 494.434540,480.703522 
	C484.954681,475.980530 474.956879,477.257080 465.029724,477.276367 
	C462.568695,477.281158 462.179688,479.104156 462.176971,481.113953 
	C462.149445,501.602325 462.141174,522.090820 462.048004,542.578979 
	C462.032837,545.911255 463.619690,546.908020 466.685852,546.806152 
	C470.845551,546.667969 475.013611,546.802429 479.177673,546.768127 
	C495.013458,546.637695 507.299377,538.259338 513.483521,522.831604 
z"/>
<path fill="#000000" opacity="1.000000" stroke="none" 
	d="
M646.986328,443.080383 
	C648.153992,438.057098 650.938232,436.403595 655.766846,436.490875 
	C665.580566,436.668304 675.404602,436.174530 685.225525,436.084259 
	C692.522644,436.017151 693.105408,436.779053 690.510620,443.348969 
	C673.450562,486.543823 656.427246,529.753662 639.177307,572.872742 
	C633.007935,588.294006 616.123901,593.376526 604.231995,583.864990 
	C601.272644,581.497986 599.352722,578.471985 597.960022,575.009705 
	C580.691467,532.077759 563.385803,489.160706 546.143494,446.218231 
	C542.491150,437.121979 542.827698,436.758850 552.408752,436.628632 
	C561.398682,436.506409 570.389099,436.353394 579.375977,436.096405 
	C584.280579,435.956238 587.258423,437.783661 589.111267,442.671234 
	C598.018921,466.169159 607.246948,489.545654 616.374268,512.960144 
	C616.845642,514.169189 617.437927,515.331177 618.635620,517.976685 
	C628.346497,492.323975 637.597168,467.886963 646.986328,443.080383 
z"/>
<path fill="#000000" opacity="1.000000" stroke="none" 
	d="
M238.437012,447.436066 
	C245.559250,450.635437 251.202057,455.316040 256.684631,460.186737 
	C261.314087,464.299469 261.415375,466.023071 257.192474,470.436829 
	C251.091827,476.813141 244.878052,483.082458 238.651917,489.337067 
	C234.474045,493.533997 233.164490,493.507172 228.660507,489.505829 
	C214.457397,476.887787 194.222916,476.801636 181.125809,489.561981 
	C171.513535,498.927032 168.767090,510.492554 172.949203,523.026978 
	C177.259521,535.945557 186.942627,543.469727 200.328934,545.689331 
	C211.247452,547.499634 220.598907,543.875366 228.668793,536.376831 
	C233.911911,531.505005 234.911758,531.687744 240.102081,536.961304 
	C245.942184,542.894958 251.752884,548.857666 257.573700,554.810242 
	C261.911804,559.246643 261.887817,560.448120 257.385468,565.039307 
	C233.469086,589.427490 195.379456,593.914185 166.462387,575.749512 
	C141.372833,559.989136 127.074951,529.578369 131.947601,502.338470 
	C137.798096,469.632080 160.393890,446.073700 192.104736,440.066254 
	C208.201447,437.016846 223.535431,439.978668 238.437012,447.436066 
z"/>
<path fill="#000000" opacity="1.000000" stroke="none" 
	d="
M373.586395,577.703735 
	C325.591461,603.046997 268.792053,574.134949 262.086090,520.601440 
	C256.861511,478.893951 285.890808,442.369324 325.425873,436.648468 
	C367.402832,430.574249 405.137146,457.756714 411.974304,499.566345 
	C416.872864,529.521484 403.783234,560.443970 373.586395,577.703735 
M338.466187,573.752808 
	C388.843384,572.575500 414.164886,520.112000 392.333252,480.247040 
	C388.569000,473.373474 380.762482,472.859039 375.835449,479.100433 
	C375.321533,479.751373 374.845947,480.452087 374.470032,481.189575 
	C369.268250,491.395721 360.914490,498.337402 350.992676,503.520782 
	C333.591492,512.611450 319.783508,525.486145 309.216644,542.011780 
	C307.391418,544.866211 306.900757,548.495178 304.019440,551.169617 
	C302.298401,548.766235 301.998993,546.345642 301.810638,543.885986 
	C300.775452,530.365356 305.990112,519.229065 314.834808,509.422363 
	C322.384827,501.051239 332.473511,496.433472 341.925934,490.868256 
	C348.334229,487.095276 354.030304,482.610382 357.554321,475.831757 
	C363.474518,464.443939 359.083954,453.966248 346.760620,450.446777 
	C339.409973,448.347504 331.784485,448.310211 324.445007,449.735260 
	C287.897430,456.831360 267.343353,492.616272 276.345001,527.783325 
	C283.655884,556.345093 308.303497,573.004272 338.466187,573.752808 
z"/>
<path fill="#000000" opacity="1.000000" stroke="none" 
	d="
M844.392517,510.183777 
	C831.800049,510.236694 819.641113,510.080597 807.491394,510.346924 
	C802.587769,510.454437 799.177979,508.473663 796.495605,504.749451 
	C781.223206,483.545105 765.972595,462.325073 750.741089,441.091370 
	C749.904175,439.924591 748.599365,438.691864 749.518005,437.078278 
	C750.408142,435.514648 752.151062,435.872009 753.597534,435.868042 
	C765.919128,435.834076 778.242065,435.943756 790.562134,435.801941 
	C795.086548,435.749847 797.453247,438.483185 799.731384,441.683868 
	C806.195801,450.765961 812.643921,459.860382 819.196106,468.879028 
	C822.961914,474.062347 824.688293,473.915833 828.148804,468.288422 
	C833.728394,459.214966 839.374573,450.178711 844.742065,440.980560 
	C846.820679,437.418549 849.416565,435.713745 853.567261,435.754181 
	C865.721436,435.872589 877.878052,435.717804 890.032715,435.808685 
	C895.450134,435.849182 896.672852,438.127991 893.626343,442.656372 
	C879.502563,463.649689 865.291077,484.584106 851.075256,505.515320 
	C849.560120,507.746094 847.688965,509.651855 844.392517,510.183777 
z"/>
<path fill="#000000" opacity="1.000000" stroke="none" 
	d="
M888.399048,573.632629 
	C890.643005,576.770081 892.837830,579.517883 894.668823,582.489929 
	C896.687012,585.765747 895.509888,588.166931 891.651245,588.211426 
	C878.488342,588.363403 865.322388,588.261108 852.157593,588.230591 
	C849.077393,588.223450 847.499023,586.067749 845.947998,583.812317 
	C839.622864,574.614685 833.260132,565.442932 826.888794,556.277222 
	C825.857971,554.794373 824.713318,553.390747 823.480286,551.764404 
	C819.602539,554.307312 817.697815,558.086060 815.321289,561.390747 
	C809.878906,568.958618 804.569702,576.624451 799.322937,584.329712 
	C797.052979,587.663147 794.166687,589.127136 790.087097,589.079285 
	C778.257263,588.940552 766.424500,589.075256 754.592896,589.056091 
	C752.976929,589.053528 751.007507,589.468750 750.033325,587.764954 
	C748.977295,585.918152 750.731018,584.687378 751.643372,583.404053 
	C766.017578,563.185120 780.515503,543.053284 794.761230,522.744446 
	C798.057190,518.045715 802.044495,516.008240 807.702698,516.067688 
	C819.032043,516.186829 830.366638,516.035645 841.695740,515.817627 
	C845.618896,515.742126 848.154602,517.334412 850.391541,520.495605 
	C862.901428,538.174316 875.573120,555.738525 888.399048,573.632629 
z"/>
<path fill="#000000" opacity="1.000000" stroke="none" 
	d="
M699.848267,553.000000 
	C699.805115,530.857788 699.748535,509.215607 699.725342,487.573425 
	C699.717407,480.141541 701.086853,478.717285 708.363098,478.660553 
	C716.686462,478.595673 725.011230,478.567383 733.334351,478.642822 
	C738.957458,478.693787 740.289307,479.933228 740.293640,485.346771 
	C740.319275,517.643555 740.230042,549.940491 740.302490,582.237061 
	C740.312683,586.794739 738.420593,588.442566 733.993103,588.361145 
	C724.673462,588.189697 715.346558,588.198364 706.026367,588.354187 
	C701.440125,588.430908 699.775330,586.251831 699.808105,581.967590 
	C699.880798,572.478882 699.841553,562.989258 699.848267,553.000000 
z"/>
<path fill="#000000" opacity="1.000000" stroke="none" 
	d="
M729.662415,435.031342 
	C738.736084,440.658844 742.823181,449.142914 741.138123,458.313843 
	C739.587830,466.751709 733.322266,472.807648 724.316833,474.572540 
	C715.876587,476.226654 706.790771,471.824585 702.027893,463.773407 
	C697.707825,456.470947 698.519165,447.166656 704.058899,440.480133 
	C709.651978,433.729248 719.418823,431.043274 727.501282,434.044495 
	C728.122864,434.275238 728.714539,434.586212 729.662415,435.031342 
z"/>
</svg>